<?xml version="1.0" encoding="UTF-8" standalone="no"?>
<!-- Created with Inkscape (http://www.inkscape.org/) -->
<svg id="svg2" xmlns="http://www.w3.org/2000/svg" xml:space="preserve" height="250" width="200.04" version="1.0"><path id="White-Background" fill="#fff" d="m198.95 1.1607h-197.85l-0.0053 82.454h197.86v-82.454-0.0003z"/><path id="Red-Cross" fill="#e31a22" d="m174.23 0.82476l-74.401 32.031-73.954-31.703h-24.78l-0.0006 8.2029 76.844 32.921-76.844 33.076-0.0009 8.19h24.781l74.166-31.795 74.19 31.795h24.72v-8.19l-76.98-32.998 76.98-32.999v-8.5315l-24.72 0.00011v0.00015z"/><path id="Arrows" fill="#231f20" d="m122.59 4.2812c-0.62 0.0001-1.09 0.4853-1.09 1.125 0 0.5505 0.47 1.0938 1.09 1.0938s1.13-0.5433 1.13-1.0938c0-0.6397-0.51-1.125-1.13-1.125zm-45.434 0.2188c-0.55 0-1.031 0.4718-1.031 1.0938 0 0.5684 0.481 1.0624 1.031 1.0624 0.625 0 1.094-0.494 1.094-1.0624 0-0.622-0.469-1.0938-1.094-1.0938zm43.224 2c-0.55 0-1.04 0.4855-1.04 1.125 0 0.5505 0.49 1.0308 1.04 1.0312 0.61 0 1.12-0.4807 1.12-1.0312 0-0.6395-0.51-1.125-1.12-1.125zm4.46 0c-0.62 0-1.12 0.4855-1.12 1.125 0 0.5505 0.5 1.0308 1.12 1.0312 0.55 0 1.04-0.4807 1.04-1.0312 0-0.6395-0.49-1.125-1.04-1.125zm-49.84 0.1562c-0.62 0-1.125 0.4718-1.125 1.0938 0 0.6395 0.505 1.125 1.125 1.125s1.125-0.4855 1.125-1.125c0-0.622-0.505-1.0938-1.125-1.0938zm4.375 0c-0.62 0-1.125 0.4718-1.125 1.0938 0 0.6395 0.505 1.125 1.125 1.125s1.125-0.4855 1.125-1.125c0-0.622-0.505-1.0938-1.125-1.0938zm43.215 0.9688s-2.89 9.649-2.68 9.844c0.12 0.213 1.87-0.469 1.87-0.469s0.53 2.969 0.81 2.969c0.29 0 0.88-2.969 0.88-2.969s1.64 0.682 1.91 0.469c0.14-0.142-2.79-9.844-2.79-9.844zm-45.434 0.125s-2.832 9.725-2.687 9.938c0.14 0.212 1.906-0.563 1.906-0.563s0.586 3 0.781 3c0.285 0 0.844-3 0.844-3s1.653 0.775 1.938 0.563c0.194-0.142-2.782-9.938-2.782-9.938zm22.874 5.781c-0.619 0-1.061 0.472-1.061 1.094s0.442 1.125 1.061 1.125c0.64 0 1.13-0.503 1.13-1.125s-0.49-1.094-1.13-1.094zm-2.186 2.219c-0.625 0-1.125 0.472-1.125 1.094 0 0.551 0.5 1.062 1.125 1.062 0.64 0 1.125-0.511 1.125-1.062 0-0.622-0.485-1.094-1.125-1.094zm4.406 0c-0.62 0-1.09 0.472-1.09 1.094 0 0.551 0.47 1.062 1.09 1.062 0.57 0 1.06-0.511 1.06-1.062 0-0.622-0.49-1.094-1.06-1.094zm-2.22 1.094s-2.889 9.662-2.749 9.875c0.145 0.213 1.938-0.5 1.938-0.5s0.547 2.969 0.811 2.969c0.29 0 0.85-2.969 0.85-2.969s1.66 0.713 1.87 0.5c0.19-0.142-2.72-9.875-2.72-9.875zm-81.999 4.375c-0.621 0-1.125 0.481-1.125 1.031 0 0.622 0.504 1.125 1.125 1.125 0.622 0 1.094-0.503 1.094-1.125 0-0.55-0.472-1.031-1.094-1.031zm164.69 0.062c-0.63 0-1.13 0.494-1.13 1.063 0 0.622 0.5 1.094 1.13 1.094 0.55 0 1.03-0.472 1.03-1.094 0-0.569-0.48-1.063-1.03-1.063zm-166.94 2.094c-0.551 0-1 0.472-1 1.094 0.001 0.621 0.449 1.125 1 1.125 0.622 0 1.125-0.504 1.125-1.125 0-0.622-0.503-1.094-1.125-1.094zm4.469 0c-0.622 0-1.125 0.472-1.125 1.094 0 0.621 0.503 1.125 1.125 1.125 0.55 0 1.094-0.504 1.094-1.125 0-0.622-0.544-1.094-1.094-1.094zm160.25 0.063c-0.62 0-1.12 0.503-1.12 1.124 0 0.622 0.5 1.094 1.12 1.094s1.09-0.472 1.09-1.094c0-0.621-0.47-1.124-1.09-1.124zm4.34 0c-0.55 0-1.03 0.503-1.03 1.124 0 0.622 0.48 1.094 1.03 1.094 0.62 0 1.13-0.472 1.13-1.094 0-0.621-0.51-1.124-1.13-1.124zm-166.81 1.031s-2.931 9.742-2.719 9.937c0.143 0.213 1.876-0.562 1.876-0.562s0.577 3 0.843 3c0.285 0 0.813-3 0.813-3s1.671 0.775 1.937 0.562c0.142-0.124-2.75-9.937-2.75-9.937zm164.69 0.093c0 0.001-3.01 9.765-2.81 9.907 0.28 0.213 1.97-0.563 1.97-0.563s0.55 3 0.84 3c0.26 0 0.81-3 0.81-3s1.74 0.776 1.88 0.563c0.14-0.195-2.69-9.907-2.69-9.907zm-134.31 10.344c-0.551 0-1.031 0.481-1.031 1.032 0 0.621 0.48 1.093 1.031 1.093 0.622 0 1.125-0.472 1.125-1.093 0-0.551-0.503-1.032-1.125-1.032zm103.9 0.063c-0.62 0-1.12 0.481-1.12 1.031 0 0.622 0.5 1.125 1.12 1.125 0.56 0 1.03-0.503 1.03-1.125 0-0.55-0.47-1.031-1.03-1.031zm-106.06 2.062c-0.621 0-1.094 0.503-1.094 1.125s0.473 1.094 1.094 1.094c0.551 0 1.062-0.472 1.062-1.094 0.001-0.622-0.511-1.125-1.062-1.125zm4.375 0c-0.62 0-1.094 0.503-1.094 1.125s0.474 1.094 1.094 1.094 1.125-0.472 1.125-1.094-0.505-1.125-1.125-1.125zm99.465 0.094c-0.62 0-1.12 0.472-1.12 1.094s0.5 1.125 1.12 1.125 1.1-0.503 1.1-1.125-0.48-1.094-1.1-1.094zm4.38 0c-0.55 0-1.13 0.472-1.13 1.094s0.58 1.125 1.13 1.125c0.62 0 1.09-0.503 1.09-1.125s-0.47-1.094-1.09-1.094zm-106.06 1.031s-2.83 9.694-2.687 9.906c0.142 0.214 1.875-0.531 1.875-0.531s0.528 2.969 0.812 2.969 0.844-2.969 0.844-2.969 1.668 0.745 1.938 0.531c0.209-0.141-2.782-9.906-2.782-9.906zm103.9 0.063s-2.99 9.795-2.78 9.937c0.27 0.213 1.94-0.562 1.94-0.562s0.56 3 0.84 3c0.22 0 0.75-3 0.75-3s1.8 0.775 1.94 0.562-2.69-9.937-2.69-9.937zm-134.28 8.469c-0.621 0-1.125 0.48-1.125 1.031 0 0.639 0.504 1.125 1.125 1.125 0.622 0 1.094-0.486 1.094-1.125 0-0.551-0.472-1.031-1.094-1.031zm164.69 0.062c-0.63 0-1.13 0.48-1.13 1.031 0 0.622 0.5 1.125 1.13 1.125 0.62 0 1.09-0.503 1.09-1.125 0-0.551-0.47-1.031-1.09-1.031zm-166.94 2.094c-0.622 0-1.093 0.472-1.093 1.094 0 0.639 0.471 1.124 1.093 1.124 0.622 0.001 1.125-0.485 1.125-1.124 0-0.622-0.503-1.094-1.125-1.094zm4.469 0c-0.622 0-1.125 0.472-1.125 1.094 0 0.639 0.503 1.124 1.125 1.124 0.55 0.001 1.031-0.485 1.031-1.124 0-0.622-0.481-1.094-1.031-1.094zm160.25 0.062c-0.57 0-1.12 0.473-1.12 1.094 0 0.622 0.55 1.125 1.12 1.125 0.62 0 1.09-0.503 1.09-1.125 0-0.621-0.47-1.094-1.09-1.094zm4.44 0c-0.63 0-1.13 0.473-1.13 1.094 0 0.622 0.5 1.125 1.13 1.125 0.55 0 1.03-0.503 1.03-1.125 0-0.621-0.48-1.094-1.03-1.094zm-166.91 1.032s-2.923 9.735-2.781 9.874c0.142 0.216 1.938-0.5 1.938-0.5 0 0.001 0.577 3 0.843 3 0.285 0 0.813-3 0.813-3 0 0.001 1.693 0.715 1.906 0.5 0.195-0.139-2.719-9.874-2.719-9.874zm164.69 0.062s-2.93 9.735-2.81 9.875c0.28 0.215 1.97-0.469 1.97-0.469s0.55 2.969 0.84 2.969c0.26 0 0.81-2.969 0.81-2.969s1.74 0.684 1.88 0.469c0.21-0.14-2.69-9.875-2.69-9.875zm-82.6 7.438c-0.615-0.001-1.12 0.505-1.12 1.124 0 0.62 0.505 1.094 1.12 1.094 0.62 0 1.1-0.474 1.1-1.094 0-0.619-0.48-1.124-1.1-1.124zm-2.214 2.218c-0.62 0-1.125 0.5-1.125 1.125 0 0.55 0.505 1.094 1.125 1.094 0.625 0 1.094-0.544 1.094-1.094 0-0.625-0.469-1.125-1.094-1.125zm4.434 0c-0.62 0-1.12 0.5-1.12 1.125 0 0.55 0.5 1.094 1.12 1.094 0.57 0 1.04-0.544 1.04-1.094 0-0.625-0.47-1.125-1.04-1.125zm-2.22 1.125s-2.921 9.649-2.776 9.844c0.14 0.215 1.937-0.469 1.937-0.469s0.579 2.969 0.839 2.969c0.29 0 0.82-2.969 0.82-2.969s1.69 0.684 1.9 0.469c0.2-0.12-2.72-9.844-2.72-9.844zm-22.495 4.719c-0.62 0-1.094 0.474-1.094 1.094 0 0.555 0.474 1.031 1.094 1.031s1.125-0.476 1.125-1.031c0-0.62-0.505-1.099-1.125-1.094zm45.125 0.188c-0.62 0-1.13 0.485-1.13 1.124 0 0.62 0.51 1.094 1.13 1.094s1.09-0.474 1.09-1.094c0-0.639-0.47-1.124-1.09-1.124zm-47.344 2.031c-0.565 0-1.031 0.476-1.031 1.031 0 0.62 0.466 1.094 1.031 1.094 0.625 0 1.125-0.474 1.125-1.094 0-0.555-0.5-1.031-1.125-1.031zm4.469 0c-0.64 0-1.125 0.476-1.125 1.031 0 0.62 0.485 1.094 1.125 1.094 0.62 0 1.094-0.474 1.094-1.094 0-0.555-0.474-1.031-1.094-1.031zm40.655 0.187c-0.56 0-1.06 0.485-1.06 1.125 0 0.62 0.5 1.125 1.06 1.125 0.63 0 1.09-0.505 1.09-1.125 0-0.64-0.46-1.125-1.09-1.125zm4.44 0c-0.63 0-1.13 0.485-1.13 1.125 0 0.62 0.5 1.125 1.13 1.125 0.62 0 1.09-0.505 1.09-1.125 0-0.64-0.47-1.125-1.09-1.125zm-47.345 0.844s-2.859 9.723-2.719 9.938c0.145 0.194 1.906-0.5 1.906-0.5 0.001 0 0.528 3 0.813 3 0.265-0.001 0.844-3 0.844-3s1.657 0.694 1.937 0.5c0.215-0.14-2.781-9.938-2.781-9.938zm45.125 0.281s-2.91 9.699-2.72 9.844c0.15 0.21 1.88-0.469 1.88-0.469s0.55 2.969 0.84 2.969c0.27 0 0.84-2.969 0.84-2.969s1.66 0.679 1.94 0.469c0.22-0.145-2.78-9.844-2.78-9.844z"/><path id="Green-Background" fill="#1b6e44" d="m1.45 83.613h197.22c-3.54 73.497-38.17 129.9-98.746 165.31-60.724-35.34-95.079-91.74-98.474-165.31"/><path id="asklepian" fill="#f1dc07" d="m99.374 93.263c-0.46 0.015-0.935 0.085-1.405 0.2-3.25 0.695-4.295 1.595-4.44 3.815l3.75-0.205 0.91 0.08c-0.005 0 0.545 0.89 0.14 1.53-0.5 0.695-1.33 0-1.33 0l-0.06-1.53-3.41 0.125c-0.21 2.29 0.7 5.412 1.265 8.322 0.27 1.75 0.62 3.67 0.41 4.99l-3.065 1.12c-3.82-2.15-7.349 0.84-10.264 2.99-2.575 1.6-6.325 2.63-8.815 2.15l-0.685 0.77c-0.285 2.29 1.665 4.85 1.455 6.52 0 0-3.125 2.36-4.94 0-1.725-2.44-5.905-0.27-7.985-0.27-2.15 0-3.455-1.19-3.935-0.42-0.57 0.83 2.22 2.22 2.22 2.22-1.745 1.31-2.1 2.36-1.675 2.98 0.41 0.62 2.08-0.84 3.75-2.01 1.725-1.19 3.94-2.36 6.515-0.21 2.63 2.22 4.585 0.48 6.735 0 2.7 2.99 6.96 0.9 10.425 0.21 2.554-0.56 3.809 0.91 6.029 0.21 2.22-0.71 2.155-5.49 5.14-6.18 0 0-0.01 4.08-0.705 7.28-0.495 2.22-1.325 4.09 0.08 16.72-7.3 1.88-14.854 4.58-20.204 11.04-2.985 3.68-4.29 8.06-3.67 13.19 2.985 11.44 15.474 15.19 25.529 18.17-1.465 6.42 0.235 15.2-1.39 21.8-2.77 0.99-6.415 2.13-7.985 5.69-1.809 4.23-0.61 8.53 0.705 10.75s5.065 4.73 8.81 5.15c0.285 2.49-0.625 6.02 1.455 7.29 2.006 1.31 4.796-0.29 5.136-1.46 0.29-1.19-0.7-2.85-0.56-4.11 0.55-4.78 6.11-10.47 7.14-12 0.98-1.53 3.62-1.31 2.38-2.98-1.18-1.58-5.98 2.16-8.27 5.2-0.39-2.02-0.5-4.96-0.47-7.92 5.61-1.13 14.76-4.14 17.61-6.66 4.1-3.67 5.83-8.74 5.56-14.01-0.07-12.78-14.92-16.16-22.7-21.22 0.04-1.22 0.13-9.51 0.2-16.69 8.85-2.64 22.77-8.94 27.64-14.34 5.14-5.63 7.42-12.37 7.35-16.6-0.07-4.22-2.01-8.66-6.58-13.25-4.58-4.51-16.39-5.83-25.7-4.37-0.89-2.01-0.76-4.57-0.69-7.08 0.35-1.792-0.2-3.467-0.49-3.747-1.47-1.69-3.83-3.195-6.461-3.25-0.155-0.005-0.3-0.01-0.455 0zm3.526 2.545l1.46 1.47 0.7 0.765-0.5 0.485s-2.08-1.805-2.22-2.14c-0.07-0.43 0.56-0.58 0.56-0.58zm-3.261 4.332l3.391 0.32s0.98 0.16 0.98 0.71c0 0.62-2.08 1.45-4.091 0.54-1.95-0.88-0.28-1.57-0.28-1.57zm-2.345 1.89c1.865-0.04 6.366 0.84 6.576 1.64 0.22 1.03-1.6 2.15-1.53 2.92 0.14 0.83 1.95 1.51 1.95 1.51-2.86 0.34-7.011 1.8-7.011 1.8l-0.405-4.44s-0.695-2.55-0.36-3.25c0.065-0.11 0.35-0.18 0.78-0.18zm15.766 6.89c4.08-0.08 8.14 0.31 11.42 1.4 4.37 1.46 12.36 7.71 12.49 14.03 0.14 6.24-1.32 9.57-6.38 14.99-4.94 5.27-15.82 10.48-25.81 13.95 0.01-1.22 0.02-1.84 0.03-3.12 4.86-0.97 13.04-4.77 16.27-6.88 3.39-2.29 12.91-6.94 12.84-17.42 0-10.41-8.4-13.54-14.16-14.37-3.27-0.48-8.47-0.91-14.37 0-4.44 0.76-8.451 3.48-8.451 3.48 3.181 0.55 5.681-1.12 8.181-1.45 2.35-0.43 17.78-1.53 22.63 4.01 4.78 5.56 4.15 10.56 1.73 14.72-6.5 7.9-16.42 11.21-24.65 15.3 0-0.13 0.01-0.86 0.01-0.86 0.09-0.94 0.24-2.02 0.42-3.16 2.28-0.48 7.02-2.57 9.57-3.94 4.31-2.41 9.38-5.53 11.87-9.64 2.43-4.08 1.46-7.9-1.17-10.89-2.63-2.98-11.25-3.47-13.69-3.47-6.93-0.07-10.89 1.19-15.811 2.93-4.94 1.67-4.445 5.82-5.685 6.37-1.265 0.55-4.644-1.1-6.314-0.14 0 0 1.04-1.25 0.205-2.42-0.835-1.26-2.775-0.69-4.515-0.14-3.68 1.17-4.94 1.6-5.205-3.13 2.7-0.97 5.9-0.91 8.045-2.92 0 0 4.994-3.6 6.594-3.67 1.6 0 2.085 0.76 2.44 1.17 4.015-1.53 10.116-3.82 17.406-4.51 1.33-0.12 2.7-0.2 4.06-0.22zm-22.716 7.22c-1.995-0.08-7.609 1.94-7.784 2.39-0.14 0.48 3.405 1.01 4.734 0.75 1.315-0.22 3.47-1.25 3.75-2.71 0.04-0.28-0.24-0.42-0.7-0.43zm16.436 2.23c6.32 0.34 15.2 0.15 17.14 3.83 1.95 3.6-0.07 6.66-1.67 8.59-4.24 5.29-14.32 9.59-16.58 10.5 1.22-6.83 3.04-15.8 1.11-22.92zm-5.14 2.61c0.59-0.03 1.29 0.03 2.15 0.23-4.151 1.67-0.88 5.64-2.9 8.82 0.5 0.42 0.83 0.98 1.45 0.76l2.85-1.72-0.27 2.28c-1.05-0.33-4.04 1.67-4.59 2.91-0.481 1.33 0.56 36.86 0.56 36.86s-1.396-0.35-3.186-0.83c-0.075-1.6-0.21-4.31-0.425-5.76-0.335-2.15 1.81-20.95-0.625-30.32 3.676-3.19-0.91-10.29 2.765-12.51 0.57-0.35 1.241-0.67 2.221-0.72zm-20.47 2.31c0.145 0 0.285-0.01 0.425 0 2.22 0.07 0.28 1.47 0.28 1.47s-3.605 2.72-5.345 0.28c0 0 2.5-1.66 4.64-1.75zm14.439 23.33s-0.08 3.94-0.08 3.89c-5.755 1.65-14.489 5.84-16.234 10.28-1.72 4.37-0.75 6.65 0.58 9.28 2.29 4.52 6.849 7.1 11.719 8.89 2.005 0.84 11.866 3.89 14.916 5.07 3.06 1.19 12.35 5.12 12.83 10.82 0.29 2.7-1.72 6.32-4.84 9.02-3.15 2.75-7.29 4.59-10.27 5.84 0.04-0.82 0.08-1.57 0.13-2.28 0.02-0.01 0.04 0 0.06-0.01 8.62-3.27 12.76-9.5 11.86-12.91-0.89-3.32-5.68-5.98-10.45-7.84-4.8-1.89-14.161-3.41-20.89-6.66-7.285-3.55-10.695-9.02-10.77-14.16-0.12-5.06 2.085-8.4 6.455-11.93 4.3-3.4 10.419-5.84 14.984-7.3zm-0.125 6.45l-0.22 3.75c-0.07 0-3.67 0.55-5.75 1.86-2.025 1.41-3.349 2.93-2.92 6.74 0.125 0.9 2.705 4.17 6.17 5.7 3.41 1.6 10.626 4.3 14.776 5.83 7.71 2.77 13.55 7.36 15.77 11.65 2.22 4.37 2 9.1 0.33 12.49-1.1 2.29-4.63 5.56-8.24 7.5-4.16 2.31-8.68 3.47-11.26 4 0.01-0.45 0.01-0.9 0.03-1.33 2.31-0.74 6.8-2.41 10.33-4.34 2.84-1.53 8.32-6.65 7.34-13.44-0.62-3.96-5.35-7.5-11.8-10.48-4.44-2.03-10.181-3.75-13.931-5.21-8.69-3.34-14.999-7.57-15.139-11.94-0.34-8.81 8.544-10.2 14.514-12.78zm-0.425 7.02l-0.56 9.08c-1.12-0.41-2.065-0.97-2.83-1.53-1.88-1.39-2.22-4.09-1.67-5.07 1.53-2.56 5.06-2.48 5.06-2.48zm3.675 27.12c0.765 0 1.746-0.13 2.156 0.71-1.101 1.81-1.101 4.85 0 6.59 1.95 1.24-1.601 4.37 2.22 3.67l-0.49-0.48 0.69-0.77 0.56 0.57c-0.9 0.42-0.76 1.37-0.76 2.14-0.7 0.28-1.03-0.34-1.46-0.69-2.411 7.14-1.53 16.92-0.62 24.56 0 0-1.606 1.1-3.061 1.05-1.46 0-2.155-0.9-2.705-2.02-0.55-1.03 1.25-4.59 1.25-4.59 0.07 1.19-0.08 2.17 0.065 3.34 0 0 0.21 2.16 2.075 1.88 1.886-0.2 0.365-7.14 0.08-11.03 0-0.84-0.15-1.81 0.685-2.24l-0.685-0.69c1.05-6.92 1.05-15.12 0-22zm5.826 1.47c3.55 2.44 9.45 3.67 9.31 8.11-0.06 2.37-6.96 6.83-9.34 8.3 0.05-0.64 0.11-1.42 0.11-1.42-0.27-3.49 4.1-6.88 0.69-9.86l-0.77-5.13zm-9.156 21.36c-0.93 2.87-2.625 5.24-5.7 6.67-0.59-2.5 3.17-4.68 5.7-6.67zm1.11 3.55s-3.615 4.44-3.97 7.16c-0.335 3.18 1.265 4.78 3.895 5.68 2.645 0.91 8.261-2.44 10.761-4.59-3.82 5.9-8.941 7.5-12.906 5.69-1.67-1.32-4.02-2.21-3.95-5.53 0.05-4.73 6.17-8.41 6.17-8.41zm3.676 16.8l0.7 5.14-0.7 0.06-0.771-5.13 0.771-0.07z"/><path id="Border" d="m1.0947 83.613h0.3553 197.22 0.28m-197.5 0c3.3932 73.557 37.752 129.98 98.474 165.3 60.576-35.39 95.206-91.82 98.746-165.3 0.21-4.027 0.28-8.112 0.28-12.287v-70.229l-197.86 0.0001 0.0041 70.034c0 4.225 0.1421 8.385 0.3553 12.485h0.0006z" stroke="#231f20" stroke-width="2.1881" fill="none"/></svg>
